<?xml version="1.0" encoding="UTF-8"?>
<svg width="52px" height="52px" viewBox="0 0 52 52" version="1.1" xmlns="http://www.w3.org/2000/svg" xmlns:xlink="http://www.w3.org/1999/xlink">
    <!-- Generator: Sketch 45.2 (43514) - http://www.bohemiancoding.com/sketch -->
    <title>Group 3</title>
    <desc>Created with Sketch.</desc>
    <defs></defs>
    <g id="Page-1" stroke="none" stroke-width="1" fill="none" fill-rule="evenodd">
        <g id="Group-3">
            <rect id="Rectangle" fill="#6C6C6C" x="0" y="0" width="52" height="52" rx="8"></rect>
            <g id="question" transform="translate(6.000000, 6.000000)">
                <polygon id="Shape" points="0 0 40 0 40 40 0 40"></polygon>
                <path d="M18.3333333,30 L21.6666667,30 L21.6666667,26.6666667 L18.3333333,26.6666667 L18.3333333,30 Z M20,3.33333333 C10.8,3.33333333 3.33333333,10.8 3.33333333,20 C3.33333333,29.2 10.8,36.6666667 20,36.6666667 C29.2,36.6666667 36.6666667,29.2 36.6666667,20 C36.6666667,10.8 29.2,3.33333333 20,3.33333333 Z M20,33.3333333 C12.65,33.3333333 6.66666667,27.35 6.66666667,20 C6.66666667,12.65 12.65,6.66666667 20,6.66666667 C27.35,6.66666667 33.3333333,12.65 33.3333333,20 C33.3333333,27.35 27.35,33.3333333 20,33.3333333 Z M20,10 C16.3166667,10 13.3333333,12.9833333 13.3333333,16.6666667 L16.6666667,16.6666667 C16.6666667,14.8333333 18.1666667,13.3333333 20,13.3333333 C21.8333333,13.3333333 23.3333333,14.8333333 23.3333333,16.6666667 C23.3333333,20 18.3333333,19.5833333 18.3333333,25 L21.6666667,25 C21.6666667,21.25 26.6666667,20.8333333 26.6666667,16.6666667 C26.6666667,12.9833333 23.6833333,10 20,10 Z" id="Shape" fill="#000000" fill-rule="nonzero"></path>
            </g>
        </g>
    </g>
</svg>