<?xml version="1.0" encoding="UTF-8"?>
<svg width="40px" height="40px" viewBox="0 0 40 40" version="1.1" xmlns="http://www.w3.org/2000/svg" xmlns:xlink="http://www.w3.org/1999/xlink">
    <!-- Generator: Sketch 45.2 (43514) - http://www.bohemiancoding.com/sketch -->
    <title>smiley blur</title>
    <desc>Created with Sketch.</desc>
    <defs></defs>
    <g id="Page-1" stroke="none" stroke-width="1" fill="none" fill-rule="evenodd">
        <g id="smiley-blur" fill-rule="nonzero" fill="#C62828">
            <g id="Group">
                <g id="Shape">
                    <path d="M20,0 C8.95384615,0 0,8.95384615 0,20 C0,31.0461538 8.95384615,40 20,40 C31.0461538,40 40,31.0461538 40,20 C40,8.95384615 31.0461538,0 20,0 Z M20,36.9230769 C10.6692308,36.9230769 3.07692308,29.3307692 3.07692308,20 C3.07692308,18.56 3.27692308,17.1707692 3.61692308,15.8353846 C6.80307692,17.7630769 12.9338462,18.4615385 20,18.4615385 C22.6353846,18.4615385 25.1338462,18.36 27.4061538,18.14 C25.9384615,16.8015385 23.9784615,14.6292308 23.0769231,11.92 C21.8,8.08923077 27.9446154,14.8553846 32.7092308,17.2661538 C34.1676923,16.8938462 35.4153846,16.4230769 36.3846154,15.8353846 C36.7230769,17.1707692 36.9230769,18.56 36.9230769,20 C36.9230769,29.3307692 29.3307692,36.9230769 20,36.9230769 Z"></path>
                    <path d="M21.7646154,30.7092308 C21.1015385,31.1353846 20.4753846,31.5384615 20,31.5384615 C19.5246154,31.5384615 18.8969231,31.1353846 18.2353846,30.7092308 C16.6215385,29.6692308 14.1846154,28.1015385 11.6676923,31.8815385 L12.9476923,32.7353846 C14.6292308,30.2153846 15.7323077,30.9261538 17.4030769,32.0015385 C18.2230769,32.5307692 19.0723077,33.0769231 20.0015385,33.0769231 C20.9307692,33.0769231 21.7784615,32.5307692 22.5984615,32.0015385 C24.2707692,30.9261538 25.3738462,30.2169231 27.0538462,32.7353846 L28.3338462,31.8815385 C25.8138462,28.1030769 23.3753846,29.6692308 21.7646154,30.7092308 Z"></path>
                    <polygon points="12.3076923 27.6923077 13.8461538 27.6923077 13.8461538 24.6153846 16.9230769 24.6153846 16.9230769 23.0769231 13.8461538 23.0769231 13.8461538 20 12.3076923 20 12.3076923 23.0769231 9.23076923 23.0769231 9.23076923 24.6153846 12.3076923 24.6153846"></polygon>
                    <polygon points="27.6923077 20 26.1538462 20 26.1538462 23.0769231 23.0769231 23.0769231 23.0769231 24.6153846 26.1538462 24.6153846 26.1538462 27.6923077 27.6923077 27.6923077 27.6923077 24.6153846 30.7692308 24.6153846 30.7692308 23.0769231 27.6923077 23.0769231"></polygon>
                </g>
            </g>
        </g>
    </g>
</svg>