<?xml version="1.0" encoding="UTF-8"?>
<svg width="40px" height="40px" viewBox="0 0 40 40" version="1.1" xmlns="http://www.w3.org/2000/svg" xmlns:xlink="http://www.w3.org/1999/xlink">
    <!-- Generator: Sketch 45.2 (43514) - http://www.bohemiancoding.com/sketch -->
    <title>smiley laugh</title>
    <desc>Created with Sketch.</desc>
    <defs></defs>
    <g id="Page-1" stroke="none" stroke-width="1" fill="none" fill-rule="evenodd">
        <g id="smiley-laugh" fill-rule="nonzero" fill="#4CAF50">
            <g id="Group">
                <g id="Shape">
                    <path d="M17.1092308,22.3323077 L10.9553846,20.7938462 C10.5446154,20.6892308 10.1261538,20.9415385 10.0246154,21.3523077 C9.92,21.7646154 10.1723077,22.1815385 10.5830769,22.2830769 L14.7184615,23.3184615 L10.4246154,25.4646154 C10.0446154,25.6538462 9.89076923,26.1169231 10.08,26.4969231 C10.2153846,26.7661538 10.4861538,26.9215385 10.7676923,26.9215385 C10.8846154,26.9215385 11.0015385,26.8938462 11.1123077,26.84 L17.2661538,23.7630769 C17.5538462,23.6184615 17.7215385,23.3107692 17.6861538,22.9907692 C17.6538462,22.6723077 17.4215385,22.4092308 17.1092308,22.3323077 Z"></path>
                    <path d="M29.5753846,25.4661538 L25.2815385,23.32 L29.4184615,22.2846154 C29.8307692,22.1830769 30.0830769,21.7646154 29.9769231,21.3538462 C29.8753846,20.9415385 29.4538462,20.6892308 29.0461538,20.7953846 L22.8923077,22.3338462 C22.58,22.4123077 22.3476923,22.6753846 22.3138462,22.9953846 C22.28,23.3153846 22.4476923,23.6230769 22.7338462,23.7676923 L28.8876923,26.8446154 C28.9969231,26.8984615 29.1138462,26.9261538 29.2323077,26.9261538 C29.5153846,26.9261538 29.7846154,26.7692308 29.92,26.5015385 C30.1076923,26.1184615 29.9553846,25.6553846 29.5753846,25.4661538 Z"></path>
                    <path d="M20,0 C8.95384615,0 0,8.95384615 0,20 C0,31.0461538 8.95384615,40 20,40 C31.0461538,40 40,31.0461538 40,20 C40,8.95384615 31.0461538,0 20,0 Z M26.0723077,35.7784615 C28.5815385,33.0507692 29.2307692,29.2307692 29.2307692,29.2307692 L10.7692308,29.2307692 C10.7692308,29.2307692 11.4184615,33.0507692 13.9276923,35.7784615 C7.59076923,33.3292308 3.07692308,27.1892308 3.07692308,20 C3.07692308,18.56 3.27692308,17.1707692 3.61692308,15.8353846 C6.80307692,17.7630769 12.9338462,18.4615385 20,18.4615385 C22.6353846,18.4615385 25.1338462,18.36 27.4061538,18.14 C25.9384615,16.8015385 23.9784615,14.6292308 23.0769231,11.92 C21.8,8.08923077 27.9446154,14.8553846 32.7092308,17.2661538 C34.1676923,16.8938462 35.4153846,16.4230769 36.3846154,15.8353846 C36.7230769,17.1707692 36.9230769,18.56 36.9230769,20 C36.9230769,27.1892308 32.4092308,33.3292308 26.0723077,35.7784615 Z"></path>
                </g>
            </g>
        </g>
    </g>
</svg>